<?xml version="1.0" encoding="utf-8"?>
<svg version="1.1" xmlns:xlink="http://www.w3.org/1999/xlink" width="20px" height="22px" xmlns="http://www.w3.org/2000/svg">
  <g transform="matrix(1 0 0 1 -20 -103 )">
    <path d="M 11.8426501035197 10.4929859719439  C 11.9806763285024 10.6399465597862  12.0496894409938 10.8089512358049  12.0496894409938 11  C 12.0496894409938 11.1910487641951  11.9806763285024 11.3600534402138  11.8426501035197 11.5070140280561  L 2.19461697722567 21.7795591182365  C 2.05659075224293 21.9265197060788  1.89786059351277 22  1.7184265010352 22  C 1.53899240855763 22  1.38026224982747 21.9265197060788  1.24223602484472 21.7795591182365  L 0.20703933747412 20.6773547094188  C 0.0690131124913727 20.5303941215765  0 20.3613894455578  0 20.1703406813627  C 0 19.9792919171677  0.0690131124913727 19.810287241149  0.20703933747412 19.6633266533066  L 8.34368530020704 11  L 0.20703933747412 2.33667334669339  C 0.0690131124913727 2.18971275885103  0 2.02070808283233  0 1.82965931863728  C 0 1.63861055444222  0.0690131124913727 1.46960587842352  0.20703933747412 1.32264529058116  L 1.24223602484472 0.220440881763527  C 1.38026224982747 0.0734802939211708  1.53899240855763 0  1.7184265010352 0  C 1.89786059351277 0  2.05659075224293 0.0734802939211708  2.19461697722567 0.220440881763527  L 11.8426501035197 10.4929859719439  Z M 19.7929606625259 10.4929859719439  C 19.9309868875086 10.6399465597862  20 10.8089512358049  20 11  C 20 11.1910487641951  19.9309868875086 11.3600534402138  19.7929606625259 11.5070140280561  L 10.1449275362319 21.7795591182365  C 10.0069013112491 21.9265197060788  9.84817115251898 22  9.66873706004141 22  C 9.48930296756384 22  9.33057280883368 21.9265197060788  9.19254658385093 21.7795591182365  L 8.15734989648033 20.6773547094188  C 8.01932367149759 20.5303941215765  7.95031055900621 20.3613894455578  7.95031055900621 20.1703406813627  C 7.95031055900621 19.9792919171677  8.01932367149759 19.810287241149  8.15734989648033 19.6633266533066  L 16.2939958592132 11  L 8.15734989648033 2.33667334669339  C 8.01932367149759 2.18971275885103  7.95031055900621 2.02070808283233  7.95031055900621 1.82965931863728  C 7.95031055900621 1.63861055444222  8.01932367149759 1.46960587842352  8.15734989648033 1.32264529058116  L 9.19254658385093 0.220440881763527  C 9.33057280883368 0.0734802939211708  9.48930296756384 0  9.66873706004141 0  C 9.84817115251898 0  10.0069013112491 0.0734802939211708  10.1449275362319 0.220440881763527  L 19.7929606625259 10.4929859719439  Z " fill-rule="nonzero" fill="#333333" stroke="none" transform="matrix(1 0 0 1 20 103 )" />
  </g>
</svg>