<?xml version="1.0" encoding="utf-8"?>
<svg version="1.1" xmlns:xlink="http://www.w3.org/1999/xlink" width="25px" height="23px" xmlns="http://www.w3.org/2000/svg">
  <g>
    <path d="M 8.92857142857143 1.91666666666667  L 8.92857142857143 3.83333333333333  L 16.0714285714286 3.83333333333333  L 16.0714285714286 1.91666666666667  L 8.92857142857143 1.91666666666667  Z M 15.625 13.4166666666667  L 25 13.4166666666667  L 25 20.6041666666667  C 25 21.2630208333333  24.7814360119048 21.8270399305556  24.3443080357143 22.2962239583333  C 23.9071800595238 22.7654079861111  23.3816964285714 23  22.7678571428571 23  L 2.23214285714285 23  C 1.61830357142857 23  1.09281994047619 22.7654079861111  0.655691964285715 22.2962239583333  C 0.218563988095237 21.8270399305556  0 21.2630208333333  0 20.6041666666667  L 0 13.4166666666667  L 9.375 13.4166666666667  L 9.375 15.8125  C 9.375 16.0720486111111  9.46335565476191 16.2966579861111  9.64006696428571 16.486328125  C 9.81677827380953 16.6759982638889  10.0260416666667 16.7708333333333  10.2678571428571 16.7708333333333  L 14.7321428571429 16.7708333333333  C 14.9739583333333 16.7708333333333  15.1832217261905 16.6759982638889  15.3599330357143 16.486328125  C 15.5366443452381 16.2966579861111  15.625 16.0720486111111  15.625 15.8125  L 15.625 13.4166666666667  Z M 10.7142857142857 13.4166666666667  L 14.2857142857143 13.4166666666667  L 14.2857142857143 15.3333333333333  L 10.7142857142857 15.3333333333333  L 10.7142857142857 13.4166666666667  Z M 24.3443080357143 4.537109375  C 24.7814360119048 5.00629340277778  25 5.5703125  25 6.22916666666667  L 25 12  L 0 12  L 0 6.22916666666667  C 0 5.5703125  0.218563988095237 5.00629340277778  0.655691964285715 4.537109375  C 1.09281994047619 4.06792534722219  1.61830357142857 3.83333333333333  2.23214285714285 3.83333333333333  L 7.14285714285715 3.83333333333333  L 7.14285714285715 1.4375  C 7.14285714285715 1.03819444444442  7.27306547619047 0.698784722222193  7.53348214285715 0.419270833333362  C 7.79389880952381 0.139756944444473  8.11011904761905 0  8.48214285714285 0  L 16.5178571428571 0  C 16.8898809523809 0  17.2061011904762 0.139756944444473  17.4665178571429 0.419270833333362  C 17.7269345238095 0.698784722222193  17.8571428571429 1.03819444444442  17.8571428571429 1.4375  L 17.8571428571429 3.83333333333333  L 22.7678571428571 3.83333333333333  C 23.3816964285714 3.83333333333333  23.9071800595238 4.06792534722219  24.3443080357143 4.537109375  Z " fill-rule="nonzero" fill="#333333" stroke="none" />
  </g>
</svg>